<mxfile host="Electron" agent="Mozilla/5.0 (Macintosh; Intel Mac OS X 10_15_7) AppleWebKit/537.36 (KHTML, like Gecko) draw.io/26.1.1 Chrome/132.0.6834.210 Electron/34.3.3 Safari/537.36" version="26.1.1">
  <diagram name="Page-1" id="GVtOtxQXoS-MyZmyUWlg">
    <mxGraphModel dx="1114" dy="878" grid="1" gridSize="10" guides="1" tooltips="1" connect="1" arrows="1" fold="1" page="1" pageScale="1" pageWidth="827" pageHeight="1169" math="0" shadow="0">
      <root>
        <mxCell id="0" />
        <mxCell id="1" parent="0" />
        <mxCell id="cpbGUlq12egqddKpk-FU-1" value="Computer" style="rounded=1;whiteSpace=wrap;html=1;fontStyle=1;verticalAlign=top;" parent="1" vertex="1">
          <mxGeometry x="143" y="90" width="376" height="410" as="geometry" />
        </mxCell>
        <mxCell id="cpbGUlq12egqddKpk-FU-2" value="CPU" style="rounded=0;whiteSpace=wrap;html=1;verticalAlign=top;" parent="1" vertex="1">
          <mxGeometry x="166" y="155" width="150" height="115" as="geometry" />
        </mxCell>
        <mxCell id="cpbGUlq12egqddKpk-FU-3" value="&lt;div&gt;&lt;span&gt;count = 1000&lt;/span&gt;&lt;/div&gt;&lt;div&gt;&lt;br&gt;&lt;/div&gt;Main Memory" style="rounded=0;whiteSpace=wrap;html=1;fontStyle=1" parent="1" vertex="1">
          <mxGeometry x="166" y="405" width="330" height="60" as="geometry" />
        </mxCell>
        <mxCell id="cpbGUlq12egqddKpk-FU-4" value="CPU Cache Memory&lt;div&gt;&lt;br&gt;&lt;/div&gt;&lt;div&gt;&lt;span&gt;count = 1001&lt;/span&gt;&lt;/div&gt;" style="rounded=0;whiteSpace=wrap;html=1;fontStyle=1" parent="1" vertex="1">
          <mxGeometry x="176" y="310" width="130" height="60" as="geometry" />
        </mxCell>
        <mxCell id="cpbGUlq12egqddKpk-FU-5" value="Thread&lt;div&gt;&lt;br&gt;&lt;/div&gt;&lt;div&gt;&lt;br&gt;&lt;/div&gt;" style="rounded=0;whiteSpace=wrap;html=1;fontStyle=0" parent="1" vertex="1">
          <mxGeometry x="176" y="190" width="130" height="60" as="geometry" />
        </mxCell>
        <mxCell id="cpbGUlq12egqddKpk-FU-6" value="CPU" style="rounded=0;whiteSpace=wrap;html=1;verticalAlign=top;" parent="1" vertex="1">
          <mxGeometry x="346" y="155" width="150" height="115" as="geometry" />
        </mxCell>
        <mxCell id="cpbGUlq12egqddKpk-FU-7" value="CPU Cache Memory&lt;div&gt;&lt;br&gt;&lt;/div&gt;&lt;div&gt;&lt;br&gt;&lt;/div&gt;" style="rounded=0;whiteSpace=wrap;html=1;" parent="1" vertex="1">
          <mxGeometry x="356" y="310" width="130" height="60" as="geometry" />
        </mxCell>
        <mxCell id="cpbGUlq12egqddKpk-FU-8" value="Thread&lt;div&gt;&lt;br&gt;&lt;/div&gt;&lt;div&gt;&lt;br&gt;&lt;/div&gt;" style="rounded=0;whiteSpace=wrap;html=1;" parent="1" vertex="1">
          <mxGeometry x="356" y="190" width="130" height="60" as="geometry" />
        </mxCell>
        <mxCell id="cpbGUlq12egqddKpk-FU-9" value="" style="rounded=1;whiteSpace=wrap;html=1;strokeColor=#FF3333;fillColor=none;" parent="1" vertex="1">
          <mxGeometry x="280" y="410" width="100" height="20" as="geometry" />
        </mxCell>
        <mxCell id="cpbGUlq12egqddKpk-FU-10" value="" style="rounded=1;whiteSpace=wrap;html=1;strokeColor=#FF3333;fillColor=none;" parent="1" vertex="1">
          <mxGeometry x="191" y="345" width="100" height="20" as="geometry" />
        </mxCell>
        <mxCell id="cpbGUlq12egqddKpk-FU-18" value="â‘£" style="text;html=1;align=center;verticalAlign=middle;whiteSpace=wrap;rounded=0;fontSize=20;fontStyle=1;fontColor=#FF3333;" parent="1" vertex="1">
          <mxGeometry x="159" y="342.5" width="36" height="25" as="geometry" />
        </mxCell>
      </root>
    </mxGraphModel>
  </diagram>
</mxfile>
